<svg id="Capa_1" data-name="Capa 1" xmlns="http://www.w3.org/2000/svg" viewBox="0 0 112.2 112.2"><defs><style>.cls-1{fill:#a1a1a1;}</style></defs><path class="cls-1" d="M56.1,0a56.1,56.1,0,1,0,56.1,56.1A56.1,56.1,0,0,0,56.1,0ZM83.77,47.26V49c0,17.72-13.49,38.15-38.15,38.15a38,38,0,0,1-20.56-6,28.48,28.48,0,0,0,3.2.19A26.94,26.94,0,0,0,45,75.57a13.43,13.43,0,0,1-12.53-9.32,13.37,13.37,0,0,0,6-.23A13.42,13.42,0,0,1,27.73,52.87V52.7a13.2,13.2,0,0,0,6.07,1.68,13.44,13.44,0,0,1-4.15-17.9,38.1,38.1,0,0,0,27.64,14A13.42,13.42,0,0,1,80.14,38.26,26.59,26.59,0,0,0,88.66,35a13.5,13.5,0,0,1-5.9,7.42,27.1,27.1,0,0,0,7.7-2.11A27.46,27.46,0,0,1,83.77,47.26Z" transform="translate(0 0)"/></svg>