<svg id="Capa_1" data-name="Capa 1" xmlns="http://www.w3.org/2000/svg" viewBox="0 0 112.2 112.2"><defs><style>.cls-1{fill:#fff;}</style></defs><path class="cls-1" d="M56.1,0a56.1,56.1,0,1,0,56.1,56.1A56.1,56.1,0,0,0,56.1,0ZM83.77,47.26c0,.57,0,1.15,0,1.73,0,17.72-13.49,38.15-38.15,38.15a38,38,0,0,1-20.56-6,28.2,28.2,0,0,0,3.2.19A27,27,0,0,0,45,75.57a13.43,13.43,0,0,1-12.53-9.32,13.43,13.43,0,0,0,6-.23A13.41,13.41,0,0,1,27.73,52.87V52.7a13.24,13.24,0,0,0,6.07,1.68,13.44,13.44,0,0,1-4.15-17.9,38.07,38.07,0,0,0,27.64,14A13.42,13.42,0,0,1,80.14,38.26,26.79,26.79,0,0,0,88.66,35a13.5,13.5,0,0,1-5.9,7.42,27.18,27.18,0,0,0,7.7-2.11A27.42,27.42,0,0,1,83.77,47.26Z" transform="translate(0 0)"/></svg>